solid OpenSCAD_Model
  facet normal 0.978612 -0 0.205714
    outer loop
      vertex 14.9563 -1.6 0.207911
      vertex 15 0 0
      vertex 14.9563 4.61656e-17 0.207911
    endloop
  endfacet
  facet normal 0.978612 4.56776e-17 0.205714
    outer loop
      vertex 15 0 0
      vertex 14.9563 -1.6 0.207911
      vertex 15 -1.6 3.55271e-16
    endloop
  endfacet
  facet normal -0 0 1
    outer loop
      vertex 13 2.20828e-16 0.994521
      vertex 13.2091 -1.6 0.994521
      vertex 13.2091 2.20828e-16 0.994521
    endloop
  endfacet
  facet normal 0 0 1
    outer loop
      vertex 13.2091 -1.6 0.994521
      vertex 13 2.20828e-16 0.994521
      vertex 13 -1.6 0.994521
    endloop
  endfacet
  facet normal 0.341441 0 0.939903
    outer loop
      vertex 14 1.92296e-16 0.866025
      vertex 14.3383 -1.6 0.743144
      vertex 14.3383 1.65011e-16 0.743144
    endloop
  endfacet
  facet normal 0.341441 0 0.939903
    outer loop
      vertex 14.3383 -1.6 0.743144
      vertex 14 1.92296e-16 0.866025
      vertex 14 -1.6 0.866025
    endloop
  endfacet
  facet normal 0.217296 0 0.976106
    outer loop
      vertex 13.618 2.11177e-16 0.951056
      vertex 14 -1.6 0.866025
      vertex 14 1.92296e-16 0.866025
    endloop
  endfacet
  facet normal 0.217296 0 0.976106
    outer loop
      vertex 14 -1.6 0.866025
      vertex 13.618 2.11177e-16 0.951056
      vertex 13.618 -1.6 0.951056
    endloop
  endfacet
  facet normal 0 -1 0
    outer loop
      vertex 2 -1.6 1
      vertex 13 -1.6 0.994521
      vertex 13 -1.6 1
    endloop
  endfacet
  facet normal 0 -1 0
    outer loop
      vertex 15 -1.6 3.55271e-16
      vertex 13.2091 -1.6 0.994521
      vertex 13 -1.6 0.994521
    endloop
  endfacet
  facet normal 0 -1 0
    outer loop
      vertex 2 -1.6 3.55271e-16
      vertex 13 -1.6 0.994521
      vertex 2 -1.6 1
    endloop
  endfacet
  facet normal 0 -1 0
    outer loop
      vertex 15 -1.6 3.55271e-16
      vertex 13 -1.6 0.994521
      vertex 2 -1.6 3.55271e-16
    endloop
  endfacet
  facet normal 0 -1 0
    outer loop
      vertex 13.2091 -1.6 0.994521
      vertex 15 -1.6 3.55271e-16
      vertex 13.618 -1.6 0.951056
    endloop
  endfacet
  facet normal 0 -1 0
    outer loop
      vertex 13.618 -1.6 0.951056
      vertex 15 -1.6 3.55271e-16
      vertex 14 -1.6 0.866025
    endloop
  endfacet
  facet normal 0 -1 0
    outer loop
      vertex 14 -1.6 0.866025
      vertex 15 -1.6 3.55271e-16
      vertex 14.3383 -1.6 0.743144
    endloop
  endfacet
  facet normal 0 -1 0
    outer loop
      vertex 14.3383 -1.6 0.743144
      vertex 15 -1.6 3.55271e-16
      vertex 14.618 -1.6 0.587785
    endloop
  endfacet
  facet normal 0 -1 0
    outer loop
      vertex 14.618 -1.6 0.587785
      vertex 15 -1.6 3.55271e-16
      vertex 14.8271 -1.6 0.406736
    endloop
  endfacet
  facet normal 0 -1 0
    outer loop
      vertex 14.8271 -1.6 0.406736
      vertex 15 -1.6 3.55271e-16
      vertex 14.9563 -1.6 0.207911
    endloop
  endfacet
  facet normal 0 1 -0
    outer loop
      vertex 0 -1.6 3.55271e-16
      vertex -6 -1.6 3
      vertex 0 -1.6 3
    endloop
  endfacet
  facet normal 0 1 0
    outer loop
      vertex -6 -1.6 3
      vertex 0 -1.6 3.55271e-16
      vertex -6 -1.6 3.55271e-16
    endloop
  endfacet
  facet normal 0.654653 0 0.755929
    outer loop
      vertex 14.618 1.30514e-16 0.587785
      vertex 14.8271 -1.6 0.406736
      vertex 14.8271 9.03136e-17 0.406736
    endloop
  endfacet
  facet normal 0.654653 0 0.755929
    outer loop
      vertex 14.8271 -1.6 0.406736
      vertex 14.618 1.30514e-16 0.587785
      vertex 14.618 -1.6 0.587785
    endloop
  endfacet
  facet normal 0.838504 -0 0.544895
    outer loop
      vertex 14.8271 -1.6 0.406736
      vertex 14.9563 4.61656e-17 0.207911
      vertex 14.8271 9.03136e-17 0.406736
    endloop
  endfacet
  facet normal 0.838504 0 0.544895
    outer loop
      vertex 14.9563 4.61656e-17 0.207911
      vertex 14.8271 -1.6 0.406736
      vertex 14.9563 -1.6 0.207911
    endloop
  endfacet
  facet normal 0.485476 0 0.87425
    outer loop
      vertex 14.3383 1.65011e-16 0.743144
      vertex 14.618 -1.6 0.587785
      vertex 14.618 1.30514e-16 0.587785
    endloop
  endfacet
  facet normal 0.485476 0 0.87425
    outer loop
      vertex 14.618 -1.6 0.587785
      vertex 14.3383 1.65011e-16 0.743144
      vertex 14.3383 -1.6 0.743144
    endloop
  endfacet
  facet normal 0.105682 0 0.9944
    outer loop
      vertex 13.2091 2.20828e-16 0.994521
      vertex 13.618 -1.6 0.951056
      vertex 13.618 2.11177e-16 0.951056
    endloop
  endfacet
  facet normal 0.105682 0 0.9944
    outer loop
      vertex 13.618 -1.6 0.951056
      vertex 13.2091 2.20828e-16 0.994521
      vertex 13.2091 -1.6 0.994521
    endloop
  endfacet
  facet normal 0 1 -2.22045e-16
    outer loop
      vertex 15 0 0
      vertex 13.2091 2.20828e-16 0.994521
      vertex 13.618 2.11177e-16 0.951056
    endloop
  endfacet
  facet normal 0 1 -2.22045e-16
    outer loop
      vertex 13 2.20828e-16 0.994521
      vertex 2 2.22045e-16 1
      vertex 13 2.22045e-16 1
    endloop
  endfacet
  facet normal 0 1 -2.22045e-16
    outer loop
      vertex 13.2091 2.20828e-16 0.994521
      vertex 15 0 0
      vertex 13 2.20828e-16 0.994521
    endloop
  endfacet
  facet normal 0 1 -2.22045e-16
    outer loop
      vertex 15 0 0
      vertex 13.618 2.11177e-16 0.951056
      vertex 14 1.92296e-16 0.866025
    endloop
  endfacet
  facet normal 0 1 -2.22045e-16
    outer loop
      vertex 15 0 0
      vertex 14 1.92296e-16 0.866025
      vertex 14.3383 1.65011e-16 0.743144
    endloop
  endfacet
  facet normal 0 1 -2.22045e-16
    outer loop
      vertex 15 0 0
      vertex 14.3383 1.65011e-16 0.743144
      vertex 14.618 1.30514e-16 0.587785
    endloop
  endfacet
  facet normal 0 1 -2.22045e-16
    outer loop
      vertex 15 0 0
      vertex 14.618 1.30514e-16 0.587785
      vertex 14.8271 9.03136e-17 0.406736
    endloop
  endfacet
  facet normal 0 1 -2.22045e-16
    outer loop
      vertex 15 0 0
      vertex 14.8271 9.03136e-17 0.406736
      vertex 14.9563 4.61656e-17 0.207911
    endloop
  endfacet
  facet normal 0 1 -2.22045e-16
    outer loop
      vertex 13 2.20828e-16 0.994521
      vertex 15 0 0
      vertex 2 0 0
    endloop
  endfacet
  facet normal 0 1 -2.22045e-16
    outer loop
      vertex 13 2.20828e-16 0.994521
      vertex 2 0 0
      vertex 2 2.22045e-16 1
    endloop
  endfacet
  facet normal 0 -1 2.22045e-16
    outer loop
      vertex -6 0 0
      vertex 0 6.66134e-16 3
      vertex -6 6.66134e-16 3
    endloop
  endfacet
  facet normal 0 -1 2.22045e-16
    outer loop
      vertex 0 6.66134e-16 3
      vertex -6 0 0
      vertex 0 0 0
    endloop
  endfacet
  facet normal 1 -0 0
    outer loop
      vertex 13 -1.6 1
      vertex 13 2.20828e-16 0.994521
      vertex 13 2.22045e-16 1
    endloop
  endfacet
  facet normal 1 0 0
    outer loop
      vertex 13 2.20828e-16 0.994521
      vertex 13 -1.6 1
      vertex 13 -1.6 0.994521
    endloop
  endfacet
  facet normal 0 -2.22045e-16 -1
    outer loop
      vertex 0 -1.6 3.55271e-16
      vertex 2 -1.6 3.55271e-16
      vertex 2 -2.1 4.66294e-16
    endloop
  endfacet
  facet normal -0 -2.22045e-16 -1
    outer loop
      vertex 2 -1.6 3.55271e-16
      vertex 0 -1.6 3.55271e-16
      vertex 2 0 0
    endloop
  endfacet
  facet normal 0 -2.22045e-16 -1
    outer loop
      vertex 0 0 0
      vertex 2 0 0
      vertex 0 -1.6 3.55271e-16
    endloop
  endfacet
  facet normal 0 -2.22045e-16 -1
    outer loop
      vertex -6 -2.1 4.66294e-16
      vertex 0 -1.6 3.55271e-16
      vertex 2 -2.1 4.66294e-16
    endloop
  endfacet
  facet normal -0 -2.22045e-16 -1
    outer loop
      vertex 0 -1.6 3.55271e-16
      vertex -6 -2.1 4.66294e-16
      vertex -6 -1.6 3.55271e-16
    endloop
  endfacet
  facet normal 0 -2.22045e-16 -1
    outer loop
      vertex 2 -1.6 3.55271e-16
      vertex 15 0 0
      vertex 15 -1.6 3.55271e-16
    endloop
  endfacet
  facet normal -0 -2.22045e-16 -1
    outer loop
      vertex 15 0 0
      vertex 2 -1.6 3.55271e-16
      vertex 2 0 0
    endloop
  endfacet
  facet normal -0 -2.22045e-16 -1
    outer loop
      vertex 2 0 0
      vertex 0 0 0
      vertex 2 0.5 -1.11022e-16
    endloop
  endfacet
  facet normal 0 -2.22045e-16 -1
    outer loop
      vertex -6 0.5 -1.11022e-16
      vertex 0 0 0
      vertex -6 0 0
    endloop
  endfacet
  facet normal 0 -2.22045e-16 -1
    outer loop
      vertex 0 0 0
      vertex -6 0.5 -1.11022e-16
      vertex 2 0.5 -1.11022e-16
    endloop
  endfacet
  facet normal -1 0 0
    outer loop
      vertex 0 -1.6 3.55271e-16
      vertex 0 6.66134e-16 3
      vertex 0 0 0
    endloop
  endfacet
  facet normal -1 -0 0
    outer loop
      vertex 0 6.66134e-16 3
      vertex 0 -1.6 3.55271e-16
      vertex 0 -1.6 3
    endloop
  endfacet
  facet normal -0 0 1
    outer loop
      vertex 2 2.22045e-16 1
      vertex 13 -1.6 1
      vertex 13 2.22045e-16 1
    endloop
  endfacet
  facet normal 0 0 1
    outer loop
      vertex 13 -1.6 1
      vertex 2 2.22045e-16 1
      vertex 2 -1.6 1
    endloop
  endfacet
  facet normal -1 0 0
    outer loop
      vertex -6 0.5 -1.11022e-16
      vertex -6 6.66134e-16 3
      vertex -6 0.5 3
    endloop
  endfacet
  facet normal -1 0 -0
    outer loop
      vertex -6 6.66134e-16 3
      vertex -6 0.5 -1.11022e-16
      vertex -6 0 0
    endloop
  endfacet
  facet normal 1 0 0
    outer loop
      vertex 2 0.5 3
      vertex 2 2.22045e-16 1
      vertex 2 0.5 -1.11022e-16
    endloop
  endfacet
  facet normal 1 0 0
    outer loop
      vertex 2 0.5 3
      vertex 2 -1.6 1
      vertex 2 2.22045e-16 1
    endloop
  endfacet
  facet normal 1 -0 0
    outer loop
      vertex 2 -2.1 3
      vertex 2 -1.6 1
      vertex 2 0.5 3
    endloop
  endfacet
  facet normal 1 0 0
    outer loop
      vertex 2 -2.1 4.66294e-16
      vertex 2 -1.6 1
      vertex 2 -2.1 3
    endloop
  endfacet
  facet normal 1 0 0
    outer loop
      vertex 2 -1.6 1
      vertex 2 -2.1 4.66294e-16
      vertex 2 -1.6 3.55271e-16
    endloop
  endfacet
  facet normal 1 0 0
    outer loop
      vertex 2 0.5 -1.11022e-16
      vertex 2 2.22045e-16 1
      vertex 2 0 0
    endloop
  endfacet
  facet normal 0 0 1
    outer loop
      vertex 2 0.5 3
      vertex 0 6.66134e-16 3
      vertex 2 -2.1 3
    endloop
  endfacet
  facet normal -0 0 1
    outer loop
      vertex -6 0.5 3
      vertex 0 6.66134e-16 3
      vertex 2 0.5 3
    endloop
  endfacet
  facet normal 0 0 1
    outer loop
      vertex 0 6.66134e-16 3
      vertex -6 0.5 3
      vertex -6 6.66134e-16 3
    endloop
  endfacet
  facet normal -0 0 1
    outer loop
      vertex 0 -1.6 3
      vertex 2 -2.1 3
      vertex 0 6.66134e-16 3
    endloop
  endfacet
  facet normal 0 0 1
    outer loop
      vertex -6 -2.1 3
      vertex 0 -1.6 3
      vertex -6 -1.6 3
    endloop
  endfacet
  facet normal 0 0 1
    outer loop
      vertex 0 -1.6 3
      vertex -6 -2.1 3
      vertex 2 -2.1 3
    endloop
  endfacet
  facet normal 0 1 -0
    outer loop
      vertex 2 0.5 -1.11022e-16
      vertex -6 0.5 3
      vertex 2 0.5 3
    endloop
  endfacet
  facet normal 0 1 0
    outer loop
      vertex -6 0.5 3
      vertex 2 0.5 -1.11022e-16
      vertex -6 0.5 -1.11022e-16
    endloop
  endfacet
  facet normal -1 0 0
    outer loop
      vertex -6 -2.1 4.66294e-16
      vertex -6 -1.6 3
      vertex -6 -1.6 3.55271e-16
    endloop
  endfacet
  facet normal -1 -0 0
    outer loop
      vertex -6 -1.6 3
      vertex -6 -2.1 4.66294e-16
      vertex -6 -2.1 3
    endloop
  endfacet
  facet normal 0 -1 0
    outer loop
      vertex -6 -2.1 4.66294e-16
      vertex 2 -2.1 3
      vertex -6 -2.1 3
    endloop
  endfacet
  facet normal 0 -1 -0
    outer loop
      vertex 2 -2.1 3
      vertex -6 -2.1 4.66294e-16
      vertex 2 -2.1 4.66294e-16
    endloop
  endfacet
endsolid OpenSCAD_Model
